# xmcd CD database file
#
# Track frame offsets:
#	150
#	20452
#	40792
#	57247
#	79112
#	103617
#	121802
#	138272
#	158737
#	171365
#	192280
#	222087
#	249045
#	265275
#
# Disc length: 3720 seconds
#
# Revision: 1
# Processed by: cddbd v1.5.2PL0 Copyright (c) Steve Scherf et al.
# Submitted via: CDex 1.51
#
DISCID=b30e860e
DTITLE=Robert Jr. Lockwood and The Aces - Blues Live! II
DYEAR=1900
DGENRE=Blues
TTITLE0=Everyday I Have The Blues
TTITLE1=Early In The Morning
TTITLE2=Guitar Inst.
TTITLE3=Route 66
TTITLE4=Strange Things Happening
TTITLE5=Money Marbles And Chalk
TTITLE6=Hide Away
TTITLE7=Reconsider Baby
TTITLE8=Harp Inst.
TTITLE9=New Orleans
TTITLE10=Hoochie Coochie Man
TTITLE11=Steal Away
TTITLE12=Got My Mojo Working
TTITLE13=Corina Corina
EXTD=
EXTT0=
EXTT1=
EXTT2=
EXTT3=
EXTT4=
EXTT5=
EXTT6=
EXTT7=
EXTT8=
EXTT9=
EXTT10=
EXTT11=
EXTT12=
EXTT13=
PLAYORDER=
